<svg xmlns="http://www.w3.org/2000/svg" viewBox="0 0 800 500">
<defs>
<linearGradient id="g0_800" x1="0" y1="0" x2="1" y2="1">
<stop offset="0" stop-color="#1d7a43"/><stop offset="1" stop-color="#14532d"/>
</linearGradient>
<radialGradient id="g0_800l" cx="0.85" cy="0.08" r="0.7">
<stop offset="0" stop-color="rgba(255,244,214,0.28)"/><stop offset="1" stop-color="rgba(255,244,214,0)"/>
</radialGradient>
</defs>
<rect width="800" height="500" fill="url(#g0_800)"/>
<rect x="80" y="0" width="80" height="500" fill="rgba(255,255,255,0.045)"/>
<rect x="240" y="0" width="80" height="500" fill="rgba(255,255,255,0.045)"/>
<rect x="400" y="0" width="80" height="500" fill="rgba(255,255,255,0.045)"/>
<rect x="560" y="0" width="80" height="500" fill="rgba(255,255,255,0.045)"/>
<rect x="720" y="0" width="80" height="500" fill="rgba(255,255,255,0.045)"/>
<rect width="800" height="500" fill="url(#g0_800l)"/>
<g fill="none" stroke="rgba(255,255,255,0.85)" stroke-width="3.3333333333333335">
<rect x="48" y="40" width="704" height="420" rx="4"/>
<line x1="400" y1="40" x2="400" y2="460"/>
<circle cx="400" cy="250" r="65"/>
<circle cx="400" cy="250" r="3" fill="rgba(255,255,255,0.85)" stroke="none"/>
<rect x="48" y="150" width="112.00000000000001" height="200"/>
<rect x="640" y="150" width="112.00000000000001" height="200"/>
<rect x="48" y="200" width="44" height="100"/>
<rect x="708" y="200" width="44" height="100"/>
</g>
</svg>